{"title":"Legion 2010 BRRip 720p Hindi~3385VKSH","uid":6110229,"size":1556492595,"categoryP":"video","categoryS":"hd___movies","magnet":"?xt=urn:btih:561f13d8487c672d1b6bca596e56d4d4eae365f3&amp;dn=Legion+2010+BRRip+720p+Hindi%7E3385VKSH&amp;tr=udp%3A%2F%2Ftracker.openbittorrent.com%3A80&amp;tr=udp%3A%2F%2Fopen.demonii.com%3A1337&amp;tr=udp%3A%2F%2Ftracker.coppersurfer.tk%3A6969&amp;tr=udp%3A%2F%2Fexodus.desync.com%3A6969","seeders":0,"leechers":1,"uploader":"3385VKSH","files":-1,"time":1295324120,"description":"An out-of-the-way diner becomes the unlikely battleground for the survival of the human race.\nWhen God loses faith in humankind, he sends his legion of angels to bring on the Apocalypse.\nHumanity's only hope lies in a group of strangers trapped in a desert diner with the\nArchangel Michael (Bettany).\n\nPaul Bettany ... Michael\nLucas Black ... Jeep Hanson\nTyrese Gibson ... Kyle Williams\nAdrianne Palicki ... Charlie\nCharles S. Dutton... Percy Walker\nKevin Durand ... Gabriel\nJon Tenney ... Howard Anderson\nWilla Holland ... Audrey Anderson\nKate Walsh ... Sandra Anderson\nDennis Quaid ... Bob Hanson\nJeanette Miller ... Gladys Foster\nCameron Harlow ... Minivan Boy\nDoug Jones ... Ice Cream Man\nJosh Stamberg ... Burton\nYancey Arias ... Estevez\n\nGeneral\nUniqueID                         : 251243667929000200156432359971077726618 (0xBD03C535042BDC0FB176C2B2F11FA19A)\nComplete name                    : Legion 2010 BRRip 720p Hindi~3385VKSH\nFormat                           : Matroska\nFile size                        : 1.43 GiB\nDuration                         : 1h 36mn\nOverall bit rate                 : 2 132 Kbps\nMovie name                       : VKS3385~Beats music Gallery\nEncoded date                     : UTC 2011-01-15 08:54:58\nWriting application              : mkvmerge v4.4.0 ('Die Wiederkehr') built on Oct 31 2010 21:52:48\nWriting library                  : libebml v1.0.0 + libmatroska v1.0.0\n[/B]\n\n[IMG]http://img839.imageshack.us/img839/7057/imdb3.png[/IMG]\n[SIZE=3][URL]http://www.imdb.com/title//[/URL][/SIZE]\n\nVideo\nID                               : 1\nFormat                           : AVC\nFormat/Info                      : Advanced Video Codec\nFormat profile                   : &lt;a class=&quot;__cf_email__&quot; href=&quot;/cdn-cgi/l/email-protection&quot; data-cfemail=&quot;3d75545a557d7109130c&quot;&gt;[email&amp;#160;protected]&lt;/a&gt;&lt;script cf-hash='f9e31' type=&quot;text/javascript&quot;&gt;\n/* &lt;![CDATA[ */!function(){try{var t=&quot;currentScript&quot;in document?document.currentScript:function(){for(var t=document.getElementsByTagName(&quot;script&quot;),e=t.length;e--;)if(t[e].getAttribute(&quot;cf-hash&quot;))return t[e]}();if(t&amp;&amp;t.previousSibling){var e,r,n,i,c=t.previousSibling,a=c.getAttribute(&quot;data-cfemail&quot;);if(a){for(e=&quot;&quot;,r=parseInt(a.substr(0,2),16),n=2;a.length-n;n+=2)i=parseInt(a.substr(n,2),16)^r,e+=String.fromCharCode(i);e=document.createTextNode(e),c.parentNode.replaceChild(e,c)}}}catch(u){}}();/* ]]&gt; */&lt;/script&gt;\nFormat settings, CABAC           : Yes\nFormat settings, ReFrames        : 8 frames\nMuxing mode                      : Header stripping\nCodec ID                         : V_MPEG4/ISO/AVC\nDuration                         : 1h 36mn\nBit rate                         : 1 866 Kbps\nWidth                            : 1 280 pixels\nHeight                           : 528 pixels\nDisplay aspect ratio             : 2.40:1\nFrame rate                       : 25.000 fps\nOriginal frame rate              : 23.976 fps\nColor space                      : YUV\nChroma subsampling               : 4:2:0\nBit depth                        : 8 bits\nScan type                        : Progressive\nBits/(Pixel*Frame)               : 0.110\nStream size                      : 1.25 GiB (88%)\n\nAudio\nID                               : 2\nFormat                           : MPEG Audio\nFormat version                   : Version 1\nFormat profile                   : Layer 3\nMode                             : Joint stereo\nMode extension                   : MS Stereo\nMuxing mode                      : Header stripping\nCodec ID                         : A_MPEG/L3\nCodec ID/Hint                    : MP3\nDuration                         : 1h 36mn\nBit rate mode                    : Constant\nBit rate                         : 224 Kbps\nChannel(s)                       : 2 channels\nSampling rate                    : 44.1 KHz\nCompression mode                 : Lossy\nVideo delay                      : 2s 200ms\nStream size                      : 154 MiB (11%)\nWriting library                  : LAME3.97\n\n\n &lt;a href=&quot;\nhttp://img340.imageshack.us/img340/1414/legion2009m720ppower102.png&quot; rel=&quot;nofollow&quot; target=&quot;_NEW&quot;&gt;\nhttp://img340.imageshack.us/img340/1414/legion2009m720ppower102.png&lt;/a&gt; &lt;a href=&quot;\nhttp://img18.imageshack.us/img18/1414/legion2009m720ppower102.png&quot; rel=&quot;nofollow&quot; target=&quot;_NEW&quot;&gt;\nhttp://img18.imageshack.us/img18/1414/legion2009m720ppower102.png&lt;/a&gt; &lt;a href=&quot;\nhttp://img153.imageshack.us/img153/1414/legion2009m720ppower102.png&quot; rel=&quot;nofollow&quot; target=&quot;_NEW&quot;&gt;\nhttp://img153.imageshack.us/img153/1414/legion2009m720ppower102.png&lt;/a&gt; &lt;a href=&quot;\nhttp://img641.imageshack.us/img641/1414/legion2009m720ppower102.png&quot; rel=&quot;nofollow&quot; target=&quot;_NEW&quot;&gt;\nhttp://img641.imageshack.us/img641/1414/legion2009m720ppower102.png&lt;/a&gt; &lt;a href=&quot;\nhttp://img13.imageshack.us/img13/1414/legion2009m720ppower102.png&quot; rel=&quot;nofollow&quot; target=&quot;_NEW&quot;&gt;\nhttp://img13.imageshack.us/img13/1414/legion2009m720ppower102.png&lt;/a&gt;\n\n\n","torrent":{"xt":"urn:btih:561f13d8487c672d1b6bca596e56d4d4eae365f3","amp;dn":"Legion+2010+BRRip+720p+Hindi%7E3385VKSH","amp;tr":["udp%3A%2F%2Ftracker.openbittorrent.com%3A80","udp%3A%2F%2Fopen.demonii.com%3A1337","udp%3A%2F%2Ftracker.coppersurfer.tk%3A6969","udp%3A%2F%2Fexodus.desync.com%3A6969"],"infoHash":"561f13d8487c672d1b6bca596e56d4d4eae365f3","infoHashBuffer":{"type":"Buffer","data":[86,31,19,216,72,124,103,45,27,107,202,89,110,86,212,212,234,227,101,243]},"announce":[],"urlList":[]}}